HIERARCHY
ROOT Hips
{
  OFFSET 267.745 86.9975 -272.335
  CHANNELS 6 Xposition Yposition Zposition Zrotation Xrotation Yrotation
  JOINT LeftUpLeg
  {
    OFFSET 8.64259 1.95398 -2.38835
    CHANNELS 3 Zrotation Xrotation Yrotation
    JOINT LeftLeg
    {
      OFFSET 43.7702 0 0
      CHANNELS 3 Zrotation Xrotation Yrotation
      JOINT LeftFoot
      {
        OFFSET 40.6238 0 0
        CHANNELS 3 Zrotation Xrotation Yrotation
        JOINT LeftToeBase
        {
          OFFSET 12.7242 0 0
          CHANNELS 3 Zrotation Xrotation Yrotation
          End Site
          {
            OFFSET 0 0 0
          }
        }
      }
    }
  }
  JOINT RightUpLeg
  {
    OFFSET -8.2249 1.95398 -2.59336
    CHANNELS 3 Zrotation Xrotation Yrotation
    JOINT RightLeg
    {
      OFFSET 43.5653 0 0
      CHANNELS 3 Zrotation Xrotation Yrotation
      JOINT RightFoot
      {
        OFFSET 40.6238 0 0
        CHANNELS 3 Zrotation Xrotation Yrotation
        JOINT RightToeBase
        {
          OFFSET 12.7242 0 0
          CHANNELS 3 Zrotation Xrotation Yrotation
          End Site
          {
            OFFSET 0 0 0
          }
        }
      }
    }
  }
  JOINT Spine
  {
    OFFSET 0.165834 0.87714 6.61349
    CHANNELS 3 Zrotation Xrotation Yrotation
    JOINT Spine1
    {
      OFFSET 7.38963 1.71661e-005 0
      CHANNELS 3 Zrotation Xrotation Yrotation
      JOINT Spine2
      {
        OFFSET 11.9445 1.14441e-005 0
        CHANNELS 3 Zrotation Xrotation Yrotation
        JOINT Spine3
        {
          OFFSET 14.7254 4.19617e-005 0
          CHANNELS 3 Zrotation Xrotation Yrotation
          JOINT Spine4
          {
            OFFSET 10.9679 0 0
            CHANNELS 3 Zrotation Xrotation Yrotation
            JOINT RightShoulder
            {
              OFFSET 2.46616 -1.6653 3.69651
              CHANNELS 3 Zrotation Xrotation Yrotation
              JOINT RightArm
              {
                OFFSET 13.0012 0 0
                CHANNELS 3 Zrotation Xrotation Yrotation
                JOINT RightForeArm
                {
                  OFFSET 28.7848 1.52588e-005 0
                  CHANNELS 3 Zrotation Xrotation Yrotation
                  JOINT RightHand
                  {
                    OFFSET 26.5688 1.52588e-005 0
                    CHANNELS 3 Zrotation Xrotation Yrotation
                    End Site
                    {
                      OFFSET 0 0 0
                    }
                  }
                }
              }
            }
            JOINT LeftShoulder
            {
              OFFSET 2.38034 -1.29275 -3.7523
              CHANNELS 3 Zrotation Xrotation Yrotation
              JOINT LeftArm
              {
                OFFSET 16.3182 6.10352e-005 0
                CHANNELS 3 Zrotation Xrotation Yrotation
                JOINT LeftForeArm
                {
                  OFFSET 27.0901 0 0
                  CHANNELS 3 Zrotation Xrotation Yrotation
                  JOINT LeftHand
                  {
                    OFFSET 24.5451 1.52588e-005 0
                    CHANNELS 3 Zrotation Xrotation Yrotation
                    End Site
                    {
                      OFFSET 0 0 0
                    }
                  }
                }
              }
            }
            JOINT Neck
            {
              OFFSET 5.0226 -0.0266342 0
              CHANNELS 3 Zrotation Xrotation Yrotation
              JOINT Head
              {
                OFFSET 6.69364 2.86102e-005 0
                CHANNELS 3 Zrotation Xrotation Yrotation
                End Site
                {
                  OFFSET 0 0 0
                }
              }
            }
          }
        }
      }
    }
  }
}
MOTION
Frames:	6
Frame Time:	0.0416667
-318.678 69.3823 325.373 -79.3652 -6.82142 91.3968 -9.71523 14.347 -77.3797 159.124 -38.5308 -128.092 17.451 -20.5359 -25.9198 52.1394 -27.3037 -125.427 -58.9764 -14.9987 -64.6984 -98.5466 -54.3632 -24.9148 -23.8035 46.0312 91.858 146.467 12.409 38.477 0.529453 23.6324 -98.3639 -20.7163 -0.563044 -16.1347 -32.4861 -1.26332 -16.096 -54.2603 4.25197 -15.5886 -34.2477 4.25197 -15.5886 124.065 -15.574 -27.2704 38.4968 5.98142 7.67105 179.574 70.1945 179.999 11.1913 -2.65349 -30.0827 -58.9155 -32.6024 132.044 -63.3581 -2.94039 -21.9803 -173.151 54.7629 179.992 11.9452 -3.01069 -27.3143 -69.1043 -10.9814 -6.6131 16.6581 -17.1237 -9.09631 
-319.083 69.1207 325.874 -79.3452 -6.70814 91.3905 -9.85176 14.5317 -77.3388 159.875 -38.9423 -127.463 15.6937 -20.7183 -27.7129 50.3823 -23.7744 -126.924 -59.2437 -14.5604 -64.2431 -98.768 -53.4014 -24.6731 -23.3468 46.4657 91.2423 145.928 12.2521 38.4682 0.588316 23.6143 -98.3863 -20.6736 -0.45944 -16.1428 -32.4436 -1.16019 -16.1085 -54.2192 4.35346 -15.5663 -34.2066 4.35347 -15.5663 124.11 -15.7383 -27.3341 38.6416 5.71808 8.08695 179.785 69.618 179.999 11.1485 -2.65087 -30.146 -58.8911 -32.5202 132.126 -63.4116 -2.72392 -22.264 -173.244 54.7431 179.992 11.8642 -3.12105 -28.2901 -69.0895 -10.6899 -6.97693 16.6605 -17.0002 -9.03058 
-320.223 68.3776 327.266 -79.2909 -6.40331 91.3719 -10.2458 15.0888 -77.2767 162.51 -40.252 -125.535 11.282 -20.9703 -32.4842 46.5524 -14.481 -129.272 -59.915 -13.3078 -63.0838 -98.5762 -49.8452 -23.4351 -21.074 46.2888 88.6086 144.511 11.7226 38.3501 0.754338 23.5636 -98.4468 -20.5537 -0.166918 -16.1611 -32.3241 -0.868661 -16.1392 -54.1045 4.63877 -15.4989 -34.0918 4.63877 -15.4989 124.247 -16.2219 -27.505 39.0499 4.98622 9.24706 -179.646 67.9807 179.999 11.0257 -2.63679 -30.2688 -58.8238 -32.2911 132.355 -63.5557 -2.11354 -23.0665 -173.509 54.7464 179.992 11.6333 -3.43217 -31.0906 -69.0268 -9.87156 -7.99004 16.6496 -16.6513 -8.86499 
-321.993 67.1964 329.386 -79.215 -5.9576 91.3389 -10.8685 15.9727 -77.2497 168.754 -42.9097 -121.489 6.4294 -20.8369 -38.8898 42.7501 -3.47066 -128.691 -60.7766 -11.3513 -61.5414 -100.259 -47.7937 -23.1523 -17.6494 48.4014 85.5898 142.552 10.7034 37.9382 1.01081 23.4846 -98.5351 -20.3675 0.286111 -16.1811 -32.1383 -0.416866 -16.1783 -53.9278 5.07818 -15.3865 -33.9152 5.07819 -15.3865 124.492 -17.0222 -27.7413 39.6926 3.89169 11.0011 -178.742 65.4079 179.879 10.8007 -2.5941 -30.3455 -58.7198 -31.9523 132.702 -63.7708 -1.17993 -24.326 -173.906 54.9269 179.992 11.2505 -3.90627 -35.5426 -68.8769 -8.62175 -9.52359 16.5905 -16.1147 -8.65567 
-324.269 65.6372 332.049 -79.132 -5.41947 91.2892 -11.6665 16.9977 -77.1382 -173.97 -48.1346 -110.033 5.44197 -20.5132 -44.6025 40.9797 1.03293 -121.099 -61.6756 -8.7575 -59.9782 -102.845 -47.0878 -23.2131 -12.3059 51.6509 81.1288 140.339 9.16037 37.0998 1.34047 23.3814 -98.6407 -20.1252 0.870622 -16.1946 -31.8963 0.166498 -16.2165 -53.7004 5.6415 -15.2292 -33.6877 5.64147 -15.2292 124.865 -18.1416 -27.9953 40.5442 2.54901 13.1927 -179.306 62.0969 -178.494 10.4298 -2.50353 -30.279 -58.5834 -31.5483 133.143 -64.0403 -0.000841238 -25.9865 -174.394 55.5199 179.992 10.6498 -4.46741 -41.3955 -68.5997 -7.04503 -11.4516 16.4507 -15.4343 -8.45322 
-326.836 63.7793 335.045 -79.0549 -4.84014 91.222 -12.6756 17.7662 -76.455 -112.729 -45.4853 -66.3409 18.9313 -20.9326 -38.1115 53.1596 -18.7461 -99.2623 -62.4934 -5.63068 -58.8117 -105.339 -47.3221 -22.9455 -4.60484 54.7117 74.0619 138.07 7.18007 35.8153 1.72573 23.2584 -98.7521 -19.8384 1.55675 -16.1921 -31.6092 0.852152 -16.243 -53.4346 6.29737 -15.0266 -33.422 6.29736 -15.0266 125.379 -19.5724 -28.2229 41.5699 1.06624 15.6746 177.199 58.2053 -173.347 9.87391 -2.35051 -29.9903 -58.4189 -31.1228 133.649 -64.3452 1.3479 -27.982 -174.934 56.8168 179.992 9.68146 -4.95849 -48.2234 -68.1673 -5.25012 -13.6607 16.2127 -14.6582 -8.28947 
